<svg width="99" height="82" viewBox="0 0 99 82" fill="none" xmlns="http://www.w3.org/2000/svg">
<path d="M49.5002 21.3395L61.2553 13.2258H76.6453V0H38.3228V13.2258H49.5002V21.3395ZM41.5163 10.5806V2.64516H73.4518V10.5806H60.0998L52.6937 15.6927V10.5806H41.5163Z" fill="#5E2394"/>
<path d="M44.71 5.29028H47.9035V7.93544H44.71V5.29028Z" fill="#5E2394"/>
<path d="M51.0972 5.29028H63.8714V7.93544H51.0972V5.29028Z" fill="#5E2394"/>
<path d="M67.0645 5.29028H70.258V7.93544H67.0645V5.29028Z" fill="#5E2394"/>
<path d="M81.2834 79.3548L79.9923 68.6483C85.3237 67.9502 89.4193 64.1264 89.4193 59.5161V42.3226H83.0322V40.495C83.0322 38.6971 81.8393 37.0826 79.9213 36.2547C81.8284 34.8036 83.0322 32.7287 83.0322 30.4193V27.7742C83.0322 23.3976 78.7355 19.8387 73.4516 19.8387C68.1677 19.8387 63.871 23.3976 63.871 27.7742V30.4193C63.871 33.8433 66.507 36.7584 70.1832 37.8692L61.613 44.9677H52.6585C52.4799 42.763 50.6516 40.8411 48.0615 40.2276L41.5161 38.6803V36.318C43.4708 34.8643 44.7097 32.7629 44.7097 30.4193V27.7742C44.7097 23.3976 40.4129 19.8387 35.129 19.8387C29.8452 19.8387 25.5484 23.3976 25.5484 27.7742V30.4193C25.5484 32.7616 26.7873 34.863 28.7419 36.318V38.6816L22.1966 40.2289C19.4693 40.8728 17.5645 42.9651 17.5645 45.3158V50.258H11.1774V58.1935H14.371V79.3548H0V82H99V79.3548H81.2834ZM67.0645 58.1935V52.1283L78.3792 42.7565C79.197 42.0791 79.6835 41.1692 79.7927 40.2199C79.8067 40.3122 79.8387 40.3994 79.8387 40.495V56.871C79.8387 59.0583 77.6891 60.8387 75.0484 60.8387H62.2742V58.1935H67.0645ZM62.2742 68.7742H70.4101L71.6872 79.3548H62.2742V68.7742ZM73.6192 68.7742H76.7972L78.0743 79.3548H74.8963L73.6192 68.7742ZM83.0322 56.871V44.9677H86.2258V59.5161C86.2258 63.1623 82.644 66.129 78.2419 66.129H62.2742V63.4839H75.0484C79.4504 63.4839 83.0322 60.5171 83.0322 56.871ZM67.0645 30.4193V27.7742C67.0645 24.8565 69.929 22.4838 73.4516 22.4838C76.9742 22.4838 79.8387 24.8565 79.8387 27.7742V30.4193C79.8387 33.337 76.9742 35.7097 73.4516 35.7097C69.929 35.7097 67.0645 33.337 67.0645 30.4193ZM62.9353 47.6129L73.5888 38.7888C73.9225 38.5124 74.3841 38.3548 74.855 38.3548C75.8421 38.3548 76.6451 39.02 76.6451 39.8376C76.6451 40.2276 76.4549 40.6099 76.1212 40.8863L64.8066 50.258H47.9032C47.0222 50.258 46.3064 49.6652 46.3064 48.9355C46.3064 48.2057 47.0222 47.6129 47.9032 47.6129H62.9353ZM28.7419 27.7742C28.7419 24.8565 31.6065 22.4838 35.129 22.4838C38.6516 22.4838 41.5161 24.8565 41.5161 27.7742V30.4193C41.5161 33.337 38.6516 35.7097 35.129 35.7097C31.6065 35.7097 28.7419 33.337 28.7419 30.4193V27.7742ZM35.129 38.3548C36.2502 38.3548 37.3215 38.1856 38.3226 37.8918V39.3125C37.9265 39.8188 36.8264 41 35.129 41C33.4317 41 32.3316 39.8188 31.9355 39.3125V37.8918C32.9366 38.1856 34.0079 38.3548 35.129 38.3548ZM20.7581 45.3158C20.7581 44.1398 21.7116 43.0949 23.0737 42.772L29.6518 41.2157C30.5781 42.2154 32.3807 43.6451 35.129 43.6451C37.8774 43.6451 39.68 42.2154 40.6062 41.2144L47.1844 42.7707C48.4077 43.0607 49.2606 43.9416 49.4314 44.9664H47.9032C45.2625 44.9664 43.1129 46.7469 43.1129 48.9342C43.1129 49.3998 43.2275 49.8415 43.4068 50.2568H20.7581V45.3158ZM14.371 52.9032H63.871V55.5484H14.371V52.9032ZM17.5645 63.4839H22.3548V60.8387H17.5645V58.1935H59.0806V60.8387H25.5484V63.4839H59.0806V79.3548H55.2774L52.0838 74.0645H24.5613L21.3678 79.3548H17.5645V63.4839ZM51.7065 79.3548H24.9387L26.5355 76.7097H50.1097L51.7065 79.3548Z" fill="#5E2394"/>
</svg>
