<svg width="81" height="81" viewBox="0 0 81 81" fill="none" xmlns="http://www.w3.org/2000/svg">
<path d="M40.5 0C18.1348 0 0 18.1313 0 40.4982C0 62.8652 18.133 80.9964 40.5 80.9964C62.8688 80.9964 81 62.8652 81 40.4982C81 18.1313 62.8688 0 40.5 0ZM40.5 12.1094C47.9005 12.1094 53.8974 18.1081 53.8974 25.5051C53.8974 32.9038 47.9005 38.9007 40.5 38.9007C33.1031 38.9007 27.1061 32.9038 27.1061 25.5051C27.1061 18.1081 33.1031 12.1094 40.5 12.1094ZM40.4911 70.408C33.1102 70.408 26.3501 67.72 21.1359 63.2708C19.8657 62.1874 19.1328 60.5988 19.1328 58.9319C19.1328 51.43 25.2044 45.426 32.7081 45.426H48.2954C55.8009 45.426 61.8494 51.43 61.8494 58.9319C61.8494 60.6006 61.12 62.1856 59.8481 63.269C54.6357 67.72 47.8738 70.408 40.4911 70.408Z" fill="#5E2394"/>
</svg>
