<svg width="74" height="60" viewBox="0 0 74 60" fill="none" xmlns="http://www.w3.org/2000/svg">
<mask id="mask0" mask-type="alpha" maskUnits="userSpaceOnUse" x="0" y="0" width="11" height="10">
<path d="M5.2284 9.27694C8.11596 9.27694 10.4568 7.20019 10.4568 4.63844C10.4568 2.07669 8.11596 0 5.2284 0C2.34084 0 0 2.07669 0 4.63844C0 7.20019 2.34084 9.27694 5.2284 9.27694Z" fill="url(#paint0_linear)"/>
</mask>
<g mask="url(#mask0)">
<path d="M5.2284 9.27694C8.11596 9.27694 10.4568 7.20019 10.4568 4.63844C10.4568 2.07669 8.11596 0 5.2284 0C2.34084 0 0 2.07669 0 4.63844C0 7.20019 2.34084 9.27694 5.2284 9.27694Z" fill="#5E2394"/>
</g>
<mask id="mask1" mask-type="alpha" maskUnits="userSpaceOnUse" x="0" y="33" width="11" height="11">
<path d="M5.2284 43.0924C8.11596 43.0924 10.4568 41.0156 10.4568 38.4539C10.4568 35.8921 8.11596 33.8154 5.2284 33.8154C2.34084 33.8154 0 35.8921 0 38.4539C0 41.0156 2.34084 43.0924 5.2284 43.0924Z" fill="url(#paint1_linear)"/>
</mask>
<g mask="url(#mask1)">
<path d="M5.2284 43.0924C8.11596 43.0924 10.4568 41.0156 10.4568 38.4539C10.4568 35.8921 8.11596 33.8154 5.2284 33.8154C2.34084 33.8154 0 35.8921 0 38.4539C0 41.0156 2.34084 43.0924 5.2284 43.0924Z" fill="#5E2394"/>
</g>
<mask id="mask2" mask-type="alpha" maskUnits="userSpaceOnUse" x="42" y="0" width="11" height="10">
<path d="M47.2284 9.27694C50.116 9.27694 52.4568 7.20019 52.4568 4.63844C52.4568 2.07669 50.116 0 47.2284 0C44.3408 0 42 2.07669 42 4.63844C42 7.20019 44.3408 9.27694 47.2284 9.27694Z" fill="url(#paint2_linear)"/>
</mask>
<g mask="url(#mask2)">
<path d="M47.2284 9.27694C50.116 9.27694 52.4568 7.20019 52.4568 4.63844C52.4568 2.07669 50.116 0 47.2284 0C44.3408 0 42 2.07669 42 4.63844C42 7.20019 44.3408 9.27694 47.2284 9.27694Z" fill="#5E2394"/>
</g>
<mask id="mask3" mask-type="alpha" maskUnits="userSpaceOnUse" x="42" y="33" width="11" height="11">
<path d="M47.2284 43.0924C50.116 43.0924 52.4568 41.0156 52.4568 38.4539C52.4568 35.8921 50.116 33.8154 47.2284 33.8154C44.3408 33.8154 42 35.8921 42 38.4539C42 41.0156 44.3408 43.0924 47.2284 43.0924Z" fill="url(#paint3_linear)"/>
</mask>
<g mask="url(#mask3)">
<path d="M47.2284 43.0924C50.116 43.0924 52.4568 41.0156 52.4568 38.4539C52.4568 35.8921 50.116 33.8154 47.2284 33.8154C44.3408 33.8154 42 35.8921 42 38.4539C42 41.0156 44.3408 43.0924 47.2284 43.0924Z" fill="#5E2394"/>
</g>
<mask id="mask4" mask-type="alpha" maskUnits="userSpaceOnUse" x="0" y="16" width="11" height="11">
<path d="M5.2284 26.1847C8.11596 26.1847 10.4568 24.1079 10.4568 21.5462C10.4568 18.9844 8.11596 16.9077 5.2284 16.9077C2.34084 16.9077 0 18.9844 0 21.5462C0 24.1079 2.34084 26.1847 5.2284 26.1847Z" fill="url(#paint4_linear)"/>
</mask>
<g mask="url(#mask4)">
<path d="M5.2284 26.1847C8.11596 26.1847 10.4568 24.1079 10.4568 21.5462C10.4568 18.9844 8.11596 16.9077 5.2284 16.9077C2.34084 16.9077 0 18.9844 0 21.5462C0 24.1079 2.34084 26.1847 5.2284 26.1847Z" fill="#5E2394"/>
</g>
<mask id="mask5" mask-type="alpha" maskUnits="userSpaceOnUse" x="0" y="50" width="11" height="10">
<path d="M5.2284 60C8.11596 60 10.4568 57.9232 10.4568 55.3615C10.4568 52.7997 8.11596 50.723 5.2284 50.723C2.34084 50.723 0 52.7997 0 55.3615C0 57.9232 2.34084 60 5.2284 60Z" fill="url(#paint5_linear)"/>
</mask>
<g mask="url(#mask5)">
<path d="M5.2284 60C8.11596 60 10.4568 57.9232 10.4568 55.3615C10.4568 52.7997 8.11596 50.723 5.2284 50.723C2.34084 50.723 0 52.7997 0 55.3615C0 57.9232 2.34084 60 5.2284 60Z" fill="#5E2394"/>
</g>
<mask id="mask6" mask-type="alpha" maskUnits="userSpaceOnUse" x="42" y="16" width="11" height="11">
<path d="M47.2284 26.1847C50.116 26.1847 52.4568 24.1079 52.4568 21.5462C52.4568 18.9844 50.116 16.9077 47.2284 16.9077C44.3408 16.9077 42 18.9844 42 21.5462C42 24.1079 44.3408 26.1847 47.2284 26.1847Z" fill="url(#paint6_linear)"/>
</mask>
<g mask="url(#mask6)">
<path d="M47.2284 26.1847C50.116 26.1847 52.4568 24.1079 52.4568 21.5462C52.4568 18.9844 50.116 16.9077 47.2284 16.9077C44.3408 16.9077 42 18.9844 42 21.5462C42 24.1079 44.3408 26.1847 47.2284 26.1847Z" fill="#5E2394"/>
</g>
<mask id="mask7" mask-type="alpha" maskUnits="userSpaceOnUse" x="42" y="50" width="11" height="10">
<path d="M47.2284 60C50.116 60 52.4568 57.9232 52.4568 55.3615C52.4568 52.7997 50.116 50.723 47.2284 50.723C44.3408 50.723 42 52.7997 42 55.3615C42 57.9232 44.3408 60 47.2284 60Z" fill="url(#paint7_linear)"/>
</mask>
<g mask="url(#mask7)">
<path d="M47.2284 60C50.116 60 52.4568 57.9232 52.4568 55.3615C52.4568 52.7997 50.116 50.723 47.2284 50.723C44.3408 50.723 42 52.7997 42 55.3615C42 57.9232 44.3408 60 47.2284 60Z" fill="#5E2394"/>
</g>
<mask id="mask8" mask-type="alpha" maskUnits="userSpaceOnUse" x="21" y="0" width="11" height="10">
<path d="M26.2284 9.27694C29.116 9.27694 31.4568 7.20019 31.4568 4.63844C31.4568 2.07669 29.116 0 26.2284 0C23.3408 0 21 2.07669 21 4.63844C21 7.20019 23.3408 9.27694 26.2284 9.27694Z" fill="url(#paint8_linear)"/>
</mask>
<g mask="url(#mask8)">
<path d="M26.2284 9.27694C29.116 9.27694 31.4568 7.20019 31.4568 4.63844C31.4568 2.07669 29.116 0 26.2284 0C23.3408 0 21 2.07669 21 4.63844C21 7.20019 23.3408 9.27694 26.2284 9.27694Z" fill="#5E2394"/>
</g>
<mask id="mask9" mask-type="alpha" maskUnits="userSpaceOnUse" x="21" y="33" width="11" height="11">
<path d="M26.2284 43.0924C29.116 43.0924 31.4568 41.0156 31.4568 38.4539C31.4568 35.8921 29.116 33.8154 26.2284 33.8154C23.3408 33.8154 21 35.8921 21 38.4539C21 41.0156 23.3408 43.0924 26.2284 43.0924Z" fill="url(#paint9_linear)"/>
</mask>
<g mask="url(#mask9)">
<path d="M26.2284 43.0924C29.116 43.0924 31.4568 41.0156 31.4568 38.4539C31.4568 35.8921 29.116 33.8154 26.2284 33.8154C23.3408 33.8154 21 35.8921 21 38.4539C21 41.0156 23.3408 43.0924 26.2284 43.0924Z" fill="#5E2394"/>
</g>
<mask id="mask10" mask-type="alpha" maskUnits="userSpaceOnUse" x="63" y="0" width="11" height="10">
<path d="M68.2284 9.27694C71.116 9.27694 73.4568 7.20019 73.4568 4.63844C73.4568 2.07669 71.116 0 68.2284 0C65.3408 0 63 2.07669 63 4.63844C63 7.20019 65.3408 9.27694 68.2284 9.27694Z" fill="url(#paint10_linear)"/>
</mask>
<g mask="url(#mask10)">
<path d="M68.2284 9.27694C71.116 9.27694 73.4568 7.20019 73.4568 4.63844C73.4568 2.07669 71.116 0 68.2284 0C65.3408 0 63 2.07669 63 4.63844C63 7.20019 65.3408 9.27694 68.2284 9.27694Z" fill="#5E2394"/>
</g>
<mask id="mask11" mask-type="alpha" maskUnits="userSpaceOnUse" x="63" y="33" width="11" height="11">
<path d="M68.2284 43.0924C71.116 43.0924 73.4568 41.0156 73.4568 38.4539C73.4568 35.8921 71.116 33.8154 68.2284 33.8154C65.3408 33.8154 63 35.8921 63 38.4539C63 41.0156 65.3408 43.0924 68.2284 43.0924Z" fill="url(#paint11_linear)"/>
</mask>
<g mask="url(#mask11)">
<path d="M68.2284 43.0924C71.116 43.0924 73.4568 41.0156 73.4568 38.4539C73.4568 35.8921 71.116 33.8154 68.2284 33.8154C65.3408 33.8154 63 35.8921 63 38.4539C63 41.0156 65.3408 43.0924 68.2284 43.0924Z" fill="#5E2394"/>
</g>
<mask id="mask12" mask-type="alpha" maskUnits="userSpaceOnUse" x="21" y="16" width="11" height="11">
<path d="M26.2284 26.1847C29.116 26.1847 31.4568 24.1079 31.4568 21.5462C31.4568 18.9844 29.116 16.9077 26.2284 16.9077C23.3408 16.9077 21 18.9844 21 21.5462C21 24.1079 23.3408 26.1847 26.2284 26.1847Z" fill="url(#paint12_linear)"/>
</mask>
<g mask="url(#mask12)">
<path d="M26.2284 26.1847C29.116 26.1847 31.4568 24.1079 31.4568 21.5462C31.4568 18.9844 29.116 16.9077 26.2284 16.9077C23.3408 16.9077 21 18.9844 21 21.5462C21 24.1079 23.3408 26.1847 26.2284 26.1847Z" fill="#5E2394"/>
</g>
<mask id="mask13" mask-type="alpha" maskUnits="userSpaceOnUse" x="21" y="50" width="11" height="10">
<path d="M26.2284 60C29.116 60 31.4568 57.9232 31.4568 55.3615C31.4568 52.7997 29.116 50.723 26.2284 50.723C23.3408 50.723 21 52.7997 21 55.3615C21 57.9232 23.3408 60 26.2284 60Z" fill="url(#paint13_linear)"/>
</mask>
<g mask="url(#mask13)">
<path d="M26.2284 60C29.116 60 31.4568 57.9232 31.4568 55.3615C31.4568 52.7997 29.116 50.723 26.2284 50.723C23.3408 50.723 21 52.7997 21 55.3615C21 57.9232 23.3408 60 26.2284 60Z" fill="#5E2394"/>
</g>
<mask id="mask14" mask-type="alpha" maskUnits="userSpaceOnUse" x="63" y="16" width="11" height="11">
<path d="M68.2284 26.1847C71.116 26.1847 73.4568 24.1079 73.4568 21.5462C73.4568 18.9844 71.116 16.9077 68.2284 16.9077C65.3408 16.9077 63 18.9844 63 21.5462C63 24.1079 65.3408 26.1847 68.2284 26.1847Z" fill="url(#paint14_linear)"/>
</mask>
<g mask="url(#mask14)">
<path d="M68.2284 26.1847C71.116 26.1847 73.4568 24.1079 73.4568 21.5462C73.4568 18.9844 71.116 16.9077 68.2284 16.9077C65.3408 16.9077 63 18.9844 63 21.5462C63 24.1079 65.3408 26.1847 68.2284 26.1847Z" fill="#5E2394"/>
</g>
<mask id="mask15" mask-type="alpha" maskUnits="userSpaceOnUse" x="63" y="50" width="11" height="10">
<path d="M68.2284 60C71.116 60 73.4568 57.9232 73.4568 55.3615C73.4568 52.7997 71.116 50.723 68.2284 50.723C65.3408 50.723 63 52.7997 63 55.3615C63 57.9232 65.3408 60 68.2284 60Z" fill="url(#paint15_linear)"/>
</mask>
<g mask="url(#mask15)">
<path d="M68.2284 60C71.116 60 73.4568 57.9232 73.4568 55.3615C73.4568 52.7997 71.116 50.723 68.2284 50.723C65.3408 50.723 63 52.7997 63 55.3615C63 57.9232 65.3408 60 68.2284 60Z" fill="#5E2394"/>
</g>
<defs>
<linearGradient id="paint0_linear" x1="42.7659" y1="89.2187" x2="-15.3933" y2="-77.1927" gradientUnits="userSpaceOnUse">
<stop/>
<stop offset="1" stop-color="white"/>
</linearGradient>
<linearGradient id="paint1_linear" x1="42.7659" y1="123.034" x2="-15.3933" y2="-43.3773" gradientUnits="userSpaceOnUse">
<stop/>
<stop offset="1" stop-color="white"/>
</linearGradient>
<linearGradient id="paint2_linear" x1="84.7659" y1="89.2187" x2="26.6067" y2="-77.1927" gradientUnits="userSpaceOnUse">
<stop/>
<stop offset="1" stop-color="white"/>
</linearGradient>
<linearGradient id="paint3_linear" x1="84.7659" y1="123.034" x2="26.6067" y2="-43.3773" gradientUnits="userSpaceOnUse">
<stop/>
<stop offset="1" stop-color="white"/>
</linearGradient>
<linearGradient id="paint4_linear" x1="42.7659" y1="106.126" x2="-15.3933" y2="-60.285" gradientUnits="userSpaceOnUse">
<stop/>
<stop offset="1" stop-color="white"/>
</linearGradient>
<linearGradient id="paint5_linear" x1="42.7659" y1="139.942" x2="-15.3933" y2="-26.4697" gradientUnits="userSpaceOnUse">
<stop/>
<stop offset="1" stop-color="white"/>
</linearGradient>
<linearGradient id="paint6_linear" x1="84.7659" y1="106.126" x2="26.6067" y2="-60.285" gradientUnits="userSpaceOnUse">
<stop/>
<stop offset="1" stop-color="white"/>
</linearGradient>
<linearGradient id="paint7_linear" x1="84.7659" y1="139.942" x2="26.6067" y2="-26.4697" gradientUnits="userSpaceOnUse">
<stop/>
<stop offset="1" stop-color="white"/>
</linearGradient>
<linearGradient id="paint8_linear" x1="63.7659" y1="89.2187" x2="5.60672" y2="-77.1927" gradientUnits="userSpaceOnUse">
<stop/>
<stop offset="1" stop-color="white"/>
</linearGradient>
<linearGradient id="paint9_linear" x1="63.7659" y1="123.034" x2="5.60672" y2="-43.3773" gradientUnits="userSpaceOnUse">
<stop/>
<stop offset="1" stop-color="white"/>
</linearGradient>
<linearGradient id="paint10_linear" x1="105.766" y1="89.2187" x2="47.6067" y2="-77.1927" gradientUnits="userSpaceOnUse">
<stop/>
<stop offset="1" stop-color="white"/>
</linearGradient>
<linearGradient id="paint11_linear" x1="105.766" y1="123.034" x2="47.6067" y2="-43.3773" gradientUnits="userSpaceOnUse">
<stop/>
<stop offset="1" stop-color="white"/>
</linearGradient>
<linearGradient id="paint12_linear" x1="63.7659" y1="106.126" x2="5.60672" y2="-60.285" gradientUnits="userSpaceOnUse">
<stop/>
<stop offset="1" stop-color="white"/>
</linearGradient>
<linearGradient id="paint13_linear" x1="63.7659" y1="139.942" x2="5.60672" y2="-26.4697" gradientUnits="userSpaceOnUse">
<stop/>
<stop offset="1" stop-color="white"/>
</linearGradient>
<linearGradient id="paint14_linear" x1="105.766" y1="106.126" x2="47.6067" y2="-60.285" gradientUnits="userSpaceOnUse">
<stop/>
<stop offset="1" stop-color="white"/>
</linearGradient>
<linearGradient id="paint15_linear" x1="105.766" y1="139.942" x2="47.6067" y2="-26.4697" gradientUnits="userSpaceOnUse">
<stop/>
<stop offset="1" stop-color="white"/>
</linearGradient>
</defs>
</svg>
