<svg width="89" height="89" viewBox="0 0 89 89" fill="none" xmlns="http://www.w3.org/2000/svg">
<path d="M27.1321 17.3679C12.1714 17.3679 0 29.5395 0 44.5002C0 59.4609 12.1714 71.6324 27.1321 71.6324H43.5585V17.3679H27.1321ZM38.3437 66.4175H27.1321C15.0469 66.4175 5.21484 56.5855 5.21484 44.5002C5.21484 32.4148 15.0469 22.5828 27.1321 22.5828H38.3437V66.4175Z" fill="#5E2394"/>
<path d="M89.0001 41.8928H58.2864V47.1077H89.0001V41.8928Z" fill="#5E2394"/>
<path d="M86.9738 19.9861L56.8401 25.9324L57.8497 31.0488L87.9834 25.1026L86.9738 19.9861Z" fill="#5E2394"/>
<path d="M57.8504 58.123L56.8408 63.2395L86.9745 69.1858L87.9842 64.0693L57.8504 58.123Z" fill="#5E2394"/>
</svg>
